<svg xmlns="http://www.w3.org/2000/svg" version="1.1" xmlns:xlink="http://www.w3.org/1999/xlink" xmlns:svgjs="http://svgjs.dev/svgjs" width="100%" height="100%" viewBox="0 0 1000 600"><rect width="1000" height="600" x="0" y="0" fill="#f7f7f7"/><g><rect width="333.3333333333333" height="333.3333333333333" rx="13.333333333333334" ry="13.333333333333334" y="273.9649182231128" fill="#29313d" transform="matrix(0.49653877560520515,0,0,0.4965387756052051,0,81.20934513192424)" x="251.74267578125"/><path d="M373.9068242726813 515.6315807115733L335.7058192475557 515.6315807115733L296.63044236313357 365.6315807115733L314.63044236313357 365.6315807115733L348.7309448756964 500.2245455356939L360.6706433681587 500.2245455356939L394.74099512695267 365.6315807115733L412.7711458807215 365.6315807115733L373.9068242726813 515.6315807115733ZM493.5148644736864 515.6315807115733L436.1982815591135 515.6315807115733L436.1982815591135 365.6315807115733L490.9218996495657 365.6315807115733Q505.6656182425306 365.6315807115733 515.5550654787115 369.5210279477542Q525.4445127148924 373.44062593770394 530.539990101827 381.9129877467492Q535.6354674887617 390.3853495557944 535.6354674887617 403.83258573669895L535.6354674887617 403.83258573669895Q535.6354674887617 413.39037468142254 533.3440102023295 419.99338975679944Q531.0827036696662 426.62655558594514 526.9520504033346 430.96826412865875Q522.8213971370029 435.3099726713723 516.7610956294652 438.35519880202554L516.7610956294652 438.35519880202554Q523.2736584435356 440.52605307338234 528.5801911068522 444.656706339714Q533.8867237701687 448.7572088522768 537.0525529158974 455.72203297287984Q540.1882313078572 462.656706339714 540.1882313078572 473.5109776964979L540.1882313078572 473.5109776964979Q540.1882313078572 485.2396209125783 536.931949900822 493.38032443016624Q533.6756684937868 501.5210279477542 527.4947639711738 506.405450058307Q521.3138594485607 511.2898721688597 512.7208946244401 513.4607264402165Q504.1580805540884 515.6315807115733 493.5148644736864 515.6315807115733L493.5148644736864 515.6315807115733ZM453.5651157299678 447.0386158874527L453.5651157299678 500.4356008120758L492.8816986445406 500.4356008120758Q501.9872262827316 500.4356008120758 508.6203921118773 498.0536912643371Q515.2234071872542 495.6717817165984 518.931949900822 489.7019324703673Q522.610341860621 483.7320832241361 522.610341860621 472.8778118673522L522.610341860621 472.8778118673522Q522.610341860621 464.405450058307 519.4746634686612 459.1893696562969Q516.3088343229326 453.97328925428684 511.5450152274552 451.38032443016624Q506.75104537820897 448.7572088522768 501.56511572996783 447.9129877467492Q496.3490353279577 447.0386158874527 492.0073267852441 447.0386158874527L492.0073267852441 447.0386158874527L453.5651157299678 447.0386158874527ZM453.5651157299678 380.8275606110708L453.5651157299678 431.8426359879552L491.7962715088622 431.8426359879552Q505.6656182425306 431.8426359879552 511.8766735189125 425.2094701588095Q518.0575780415255 418.6064550834326 518.0575780415255 405.34012342514114L518.0575780415255 405.34012342514114Q518.0575780415255 392.5562038271512 511.2133569359979 386.67680684222654Q504.36913583047027 380.8275606110708 490.2585830666512 380.8275606110708L490.2585830666512 380.8275606110708L453.5651157299678 380.8275606110708Z " fill="#ffff" transform="matrix(0.49653877560520515,0,0,0.4965387756052051,0,81.20934513192424)"/><path d="M741.7636644204356 513.3705630098785L705.5015006056451 513.3705630098785L668.4093425125367 370.98361353980556L685.4957764489454 370.98361353980556L717.865553303348 498.74549141606803L729.1992682762422 498.74549141606803L761.5404246382889 370.98361353980556L778.6554790670534 370.98361353980556L741.7636644204356 513.3705630098785ZM820.8993257842047 515.4312384594957L820.8993257842047 515.4312384594957Q806.6749410833753 515.4312384594957 799.2622335632248 507.38888010751765Q791.8495260430743 499.3465217555397 791.8495260430743 483.89145588341114L791.8495260430743 483.89145588341114Q791.8495260430743 473.81704257417186 795.3412261104811 467.40605228647405Q798.8329261778879 461.0236824911321 805.9594287744806 457.61784390079265Q813.0573108787173 454.24062580280906 823.5610315732936 453.410631524491L823.5610315732936 453.410631524491L855.3011575958685 450.3196183500653L855.3011575958685 441.4472657197693Q855.3011575958685 430.9435450251931 850.66463783423 426.62185067946825Q846.0281180725915 422.3001563337434 836.955421995805 422.3001563337434L836.955421995805 422.3001563337434Q831.8037333717621 422.3001563337434 824.7058512675253 422.70084322672454Q817.6079691632885 423.1015301197056 810.5959485361191 423.7311809515331Q803.5839279089496 424.36083178336054 798.2318958384162 424.9618621228322L798.2318958384162 424.9618621228322L797.4019015600982 412.79815287161995Q802.3532467376506 411.76781514681136 809.3652673648199 410.7374774220028Q816.3486674996336 409.70713969719424 823.9903389586304 408.99162738829943Q831.6033899252716 408.2761150794046 837.9857597206135 408.2761150794046L837.9857597206135 408.2761150794046Q849.7487820788447 408.2761150794046 857.1614895989952 411.88229711623455Q864.5741971191457 415.48847915306453 867.9800357094852 422.8153251961477Q871.3858742998245 430.11355074687503 871.3858742998245 441.4472657197693L871.3858742998245 441.4472657197693L871.3858742998245 493.5938027920252Q871.7865611928057 498.1158405842406 874.9920563366545 500.1765160338577Q878.1689309881476 502.2371914834748 883.1202761656999 502.8668423153023L883.1202761656999 502.8668423153023L882.5192458262283 515.4312384594957Q877.9685875416571 515.4312384594957 874.2765440277597 514.9160695970913Q870.5558800215066 514.4009007346871 867.2645234005903 513.3705630098785L867.2645234005903 513.3705630098785Q864.5741971191457 512.34022528507 862.1986962536148 510.9092006672803Q859.8518158804397 509.4495555571348 857.5621764919763 507.38888010751765L857.5621764919763 507.38888010751765Q853.6697895315883 509.0488686641537 847.5736246598043 510.9092006672803Q841.5060802803761 512.7409121780511 834.6085416226299 514.0860753187734Q827.6823824725278 515.4312384594957 820.8993257842047 515.4312384594957ZM823.5610315732936 502.0368480369843L823.5610315732936 502.0368480369843Q829.1420275826733 502.0368480369843 835.1237104850342 501.0065103121757Q841.0767728950392 499.97617258736716 846.4574254579284 498.54514796957744Q851.8094575284617 497.085502859432 855.3011575958685 495.85482168813286L855.3011575958685 495.85482168813286L855.3011575958685 462.2543636624312L825.4213635764202 465.1450333903664Q816.148324053143 465.9750276686844 812.141455123332 470.49706546089976Q808.105965701165 475.04772374547093 808.105965701165 483.49076899043007L808.105965701165 483.49076899043007Q808.105965701165 492.13415768187974 812.0269731539088 497.085502859432Q815.9479806066524 502.0368480369843 823.5610315732936 502.0368480369843ZM935.6675001309369 515.6315819059862L935.6675001309369 515.6315819059862Q924.9634359898702 515.6315819059862 918.6669276715955 512.34022528507Q912.3990398456767 509.0488686641537 909.7087135642322 500.89202834275255Q907.0183872827876 492.76380851370715 907.0183872827876 477.9383934734061L907.0183872827876 477.9383934734061L907.0183872827876 424.1318678445142L892.393315688977 424.1318678445142L892.393315688977 410.3367905290217L907.0183872827876 410.3367905290217L907.0183872827876 378.7970079529372L922.902760540253 378.7970079529372L922.902760540253 410.3367905290217L955.2439169022997 410.3367905290217L955.2439169022997 424.1318678445142L922.902760540253 424.1318678445142L922.902760540253 473.1873917423444Q922.902760540253 484.12041982225753 923.8186162956383 490.18796420168576Q924.7630925433796 496.255508581114 927.8541057178052 498.74549141606803Q930.945118892231 501.2068537586663 937.5278321340635 501.2068537586663L937.5278321340635 501.2068537586663Q939.5885075836807 501.2068537586663 942.8798642045969 501.0065103121757Q946.1712208255132 500.80616686568516 949.5770594158525 500.4913414497714Q952.982898006192 500.1765160338577 955.6732242876366 499.97617258736716L955.6732242876366 499.97617258736716L956.7035620124452 513.3705630098785Q952.152903727874 514.000213841706 945.9708773790226 514.8015876276681Q939.7888510301711 515.6315819059862 935.6675001309369 515.6315819059862ZM1007.9914843140273 515.6315819059862L1007.9914843140273 515.6315819059862Q997.2874201729605 515.6315819059862 990.9909118546859 512.34022528507Q984.723024028767 509.0488686641537 982.0326977473225 500.89202834275255Q979.3709919582336 492.76380851370715 979.3709919582336 477.9383934734061L979.3709919582336 477.9383934734061L979.3709919582336 424.1318678445142L964.7172998720673 424.1318678445142L964.7172998720673 410.3367905290217L979.3709919582336 410.3367905290217L979.3709919582336 378.7970079529372L995.2267447233432 378.7970079529372L995.2267447233432 410.3367905290217L1027.56790108539 410.3367905290217L1027.56790108539 424.1318678445142L995.2267447233432 424.1318678445142L995.2267447233432 473.1873917423444Q995.2267447233432 484.12041982225753 996.1426004787287 490.18796420168576Q997.0870767264698 496.255508581114 1000.1780899008957 498.74549141606803Q1003.2691030753213 501.2068537586663 1009.8518163171539 501.2068537586663L1009.8518163171539 501.2068537586663Q1011.9124917667709 501.2068537586663 1015.2038483876872 501.0065103121757Q1018.5238255009592 500.80616686568516 1021.9010435989429 500.4913414497714Q1025.3068821892823 500.1765160338577 1027.997208470727 499.97617258736716L1027.997208470727 499.97617258736716L1029.0275461955355 513.3705630098785Q1024.4768879109643 514.000213841706 1018.2948615621128 514.8015876276681Q1012.1128352132615 515.6315819059862 1007.9914843140273 515.6315819059862ZM1078.6841004328373 515.4312384594957L1078.6841004328373 515.4312384594957Q1073.9330987017756 515.4312384594957 1067.2359034905198 514.8015876276681Q1060.5387082792643 514.2005572881965 1053.9559950374316 513.2560810404553Q1047.3732817955993 512.34022528507 1042.2215931715564 511.51023100675195L1042.2215931715564 511.51023100675195L1043.0229669575185 497.71515369125945Q1048.1746555815612 498.3161840307311 1054.6715073463265 499.1461783090491Q1061.1683591110916 499.97617258736716 1067.350385459943 500.4913414497714Q1073.5324118087944 501.0065103121757 1077.2530758150476 501.0065103121757L1077.2530758150476 501.0065103121757Q1085.6961210600068 501.0065103121757 1091.2484965770307 499.4610037249629Q1096.8294925864104 497.91549713775 1099.6915418219896 494.1948331314968Q1102.582211549925 490.5027896175995 1102.582211549925 483.6911124369206L1102.582211549925 483.6911124369206Q1102.582211549925 478.53942381287777 1100.4356746232404 475.64875408494265Q1098.2605172042001 472.7867048493633 1092.3933162712624 470.9263728462367Q1086.5261153383249 469.0660408431101 1075.392743811921 467.40605228647405L1075.392743811921 467.40605228647405Q1063.8586853925362 465.57434077570326 1056.131152456472 462.76953252483554Q1048.4036195204078 459.99334476632356 1044.6829555141546 454.4409692492996Q1040.9622915079015 448.85997323991984 1040.9622915079015 438.5565959918342L1040.9622915079015 438.5565959918342Q1040.9622915079015 427.0225375724493 1046.3429440707905 420.43982433061683Q1051.694976141324 413.82849059642854 1060.2525033557063 411.05230283791656Q1068.7814100777327 408.2761150794046 1078.0544496010098 408.2761150794046L1078.0544496010098 408.2761150794046Q1083.8357890568802 408.2761150794046 1090.7333277146263 408.90576591123204Q1097.6308663723726 409.5067962507037 1104.242200106561 410.4512724984449Q1110.8249133483935 411.3671282538303 1115.5759150794552 412.1971225321483L1115.5759150794552 412.1971225321483L1115.1466076941183 425.9921998476408Q1110.2238830089218 425.1622055693228 1103.6125492747335 424.44669326042794Q1097.0298360329011 423.7311809515331 1090.4185022987126 423.2160120891288Q1083.8357890568802 422.70084322672454 1078.8844438793278 422.70084322672454L1078.8844438793278 422.70084322672454Q1072.7024175304764 422.70084322672454 1067.751072352924 424.0460063674468Q1062.8283476677277 425.3911695081691 1059.9376779397926 428.6825261290854Q1057.0470082118575 431.9738827500016 1057.0470082118575 437.9555656523625L1057.0470082118575 437.9555656523625Q1057.0470082118575 442.4776034445779 1059.1076836614745 445.25379120308986Q1061.1683591110916 448.05859945395764 1066.949698566962 449.8903109647284Q1072.7024175304764 451.750642967855 1083.6354456103895 453.6109749709816L1083.6354456103895 453.6109749709816Q1096.4001852010736 455.6716504205987 1104.127718137138 458.76266359502443Q1111.855251073202 461.8536767694501 1115.3755716329647 467.40605228647405Q1118.8672717003715 472.9870482958538 1118.8672717003715 483.09008209744894L1118.8672717003715 483.09008209744894Q1118.8672717003715 501.2068537586663 1108.1632075593047 508.33335635525884Q1097.430522925882 515.4312384594957 1078.6841004328373 515.4312384594957ZM1165.0321258702666 515.4312384594957L1165.0321258702666 515.4312384594957Q1150.8077411694371 515.4312384594957 1143.3950336492867 507.38888010751765Q1135.982326129136 499.3465217555397 1135.982326129136 483.89145588341114L1135.982326129136 483.89145588341114Q1135.982326129136 473.81704257417186 1139.4740261965428 467.40605228647405Q1142.9657262639496 461.0236824911321 1150.0922288605423 457.61784390079265Q1157.190110964779 454.24062580280906 1167.6938316593553 453.410631524491L1167.6938316593553 453.410631524491L1199.4339576819302 450.3196183500653L1199.4339576819302 441.4472657197693Q1199.4339576819302 430.9435450251931 1194.797437920292 426.62185067946825Q1190.1609181586532 422.3001563337434 1181.0882220818667 422.3001563337434L1181.0882220818667 422.3001563337434Q1175.9365334578238 422.3001563337434 1168.838651353587 422.70084322672454Q1161.7407692493503 423.1015301197056 1154.7287486221808 423.7311809515331Q1147.7167279950113 424.36083178336054 1142.364695924478 424.9618621228322L1142.364695924478 424.9618621228322L1141.53470164616 412.79815287161995Q1146.4860468237123 411.76781514681136 1153.4980674508815 410.7374774220028Q1160.4814675856953 409.70713969719424 1168.1231390446922 408.99162738829943Q1175.7361900113333 408.2761150794046 1182.1185598066752 408.2761150794046L1182.1185598066752 408.2761150794046Q1193.8815821649064 408.2761150794046 1201.2942896850568 411.88229711623455Q1208.7069972052072 415.48847915306453 1212.1128357955467 422.8153251961477Q1215.5186743858862 430.11355074687503 1215.5186743858862 441.4472657197693L1215.5186743858862 441.4472657197693L1215.5186743858862 493.5938027920252Q1215.9193612788674 498.1158405842406 1219.1248564227162 500.1765160338577Q1222.3017310742093 502.2371914834748 1227.2530762517617 502.8668423153023L1227.2530762517617 502.8668423153023L1226.65204591229 515.4312384594957Q1222.1013876277189 515.4312384594957 1218.4093441138216 514.9160695970913Q1214.6886801075684 514.4009007346871 1211.397323486652 513.3705630098785L1211.397323486652 513.3705630098785Q1208.7069972052072 512.34022528507 1206.3314963396765 510.9092006672803Q1203.9846159665017 509.4495555571348 1201.694976578038 507.38888010751765L1201.694976578038 507.38888010751765Q1197.80258961765 509.0488686641537 1191.7064247458661 510.9092006672803Q1185.6388803664377 512.7409121780511 1178.7413417086914 514.0860753187734Q1171.8151825585896 515.4312384594957 1165.0321258702666 515.4312384594957ZM1167.6938316593553 502.0368480369843L1167.6938316593553 502.0368480369843Q1173.274827668735 502.0368480369843 1179.256510571096 501.0065103121757Q1185.209572981101 499.97617258736716 1190.59022554399 498.54514796957744Q1195.9422576145234 497.085502859432 1199.4339576819302 495.85482168813286L1199.4339576819302 495.85482168813286L1199.4339576819302 462.2543636624312L1169.5541636624819 465.1450333903664Q1160.2811241392048 465.9750276686844 1156.2742552093937 470.49706546089976Q1152.2387657872268 475.04772374547093 1152.2387657872268 483.49076899043007L1152.2387657872268 483.49076899043007Q1152.2387657872268 492.13415768187974 1156.1597732399705 497.085502859432Q1160.0807806927141 502.0368480369843 1167.6938316593553 502.0368480369843ZM1263.114553173571 513.3705630098785L1247.2588004084614 513.3705630098785L1247.2588004084614 365.6315814692722L1263.114553173571 365.6315814692722L1263.114553173571 513.3705630098785ZM1350.8936032287897 513.3705630098785L1296.4860472604264 513.3705630098785L1296.4860472604264 370.98361353980556L1348.4322408861917 370.98361353980556Q1362.4276616481748 370.98361353980556 1371.815183140875 374.67565705370293Q1381.2027046335752 378.3963210599561 1386.0395678417044 386.4386794119341Q1390.8764310498336 394.48103776391207 1390.8764310498336 407.24577735459604L1390.8764310498336 407.24577735459604Q1390.8764310498336 416.3184734313826 1388.7012736307931 422.58636125730135Q1386.5547367041086 428.8828695755759 1382.633729251365 433.0042204748102Q1378.7127217986213 437.1255713740445 1372.9600028351065 440.01624110197963L1372.9600028351065 440.01624110197963Q1379.1420291839581 442.07691655159675 1384.1792358385778 445.99792400434046Q1389.2164424931975 449.8903109647284 1392.2215941905556 456.5016446989167Q1395.1981253955582 463.0843579407492 1395.1981253955582 473.38773518883494L1395.1981253955582 473.38773518883494Q1395.1981253955582 484.5211067152386 1392.1071122211324 492.2486396513029Q1389.016099046707 499.97617258736716 1383.148898113769 504.61269234900567Q1377.2816971808315 509.2492121106443 1369.1248568594303 511.30988756026136Q1360.996637030385 513.3705630098785 1350.8936032287897 513.3705630098785L1350.8936032287897 513.3705630098785ZM1312.9714508573634 448.2589429004482L1312.9714508573634 498.94583486255857L1350.2925728893183 498.94583486255857Q1358.935961580768 498.94583486255857 1365.2324698990424 496.68481596645086Q1371.500357724961 494.4237970703432 1375.020678284724 488.75693958389604Q1378.5123783521308 483.09008209744894 1378.5123783521308 472.7867048493633L1378.5123783521308 472.7867048493633Q1378.5123783521308 464.7443464973853 1375.5358471471282 459.79300131983297Q1372.5306954497696 454.8416561422807 1368.0086576575543 452.3802937996825Q1363.4579993729833 449.8903109647284 1358.5352746877868 449.0889371787662Q1353.5839295102346 448.2589429004482 1349.462578611 448.2589429004482L1349.462578611 448.2589429004482L1312.9714508573634 448.2589429004482ZM1312.9714508573634 385.4083416871255L1312.9714508573634 433.8342147531282L1349.2622351645095 433.8342147531282Q1362.4276616481748 433.8342147531282 1368.3234830734682 427.53770643485365Q1374.1906840064057 421.2698186089348 1374.1906840064057 408.6768019723857L1374.1906840064057 408.6768019723857Q1374.1906840064057 396.5417132135292 1367.6938322416408 390.96071720414943Q1361.1969804768755 385.4083416871255 1347.8025900543641 385.4083416871255L1347.8025900543641 385.4083416871255L1312.9714508573634 385.4083416871255ZM1436.6119778343914 513.3705630098785L1420.756225069282 513.3705630098785L1420.756225069282 365.6315814692722L1436.6119778343914 365.6315814692722L1436.6119778343914 415.88916604604566Q1441.9926303972807 413.4278037034474 1450.950844504644 410.851959391426Q1459.9090586120074 408.2761150794046 1468.151760410476 408.2761150794046L1468.151760410476 408.2761150794046Q1482.3761451113055 408.2761150794046 1489.9033346008791 413.31332173402427Q1497.401903598097 418.3791488809997 1500.206711848965 429.5125204074034Q1502.9828996074766 440.6172714414513 1502.9828996074766 458.76266359502443L1502.9828996074766 458.76266359502443L1502.9828996074766 513.3705630098785L1486.8981829035206 513.3705630098785L1486.8981829035206 459.39231442685184Q1486.8981829035206 445.99792400434046 1485.3526763163081 437.9555656523625Q1483.8071697290952 429.9132073003845 1479.2851319368797 426.3070252635545Q1474.7344736523087 422.70084322672454 1465.2610906825407 422.70084322672454L1465.2610906825407 422.70084322672454Q1457.4476962694093 422.70084322672454 1449.405337917431 424.76151867634167Q1441.3629795654533 426.8221941259588 1436.6119778343914 428.6825261290854L1436.6119778343914 428.6825261290854L1436.6119778343914 513.3705630098785ZM1554.0704784625682 515.4312384594957L1554.0704784625682 515.4312384594957Q1539.8747142540947 515.4312384594957 1532.4333862415883 507.38888010751765Q1525.020678721438 499.3465217555397 1525.020678721438 483.89145588341114L1525.020678721438 483.89145588341114Q1525.020678721438 473.81704257417186 1528.5409992812006 467.40605228647405Q1532.0326993486074 461.0236824911321 1539.1305814528441 457.61784390079265Q1546.2570840494368 454.24062580280906 1556.7608047440128 453.410631524491L1556.7608047440128 453.410631524491L1588.5009307665878 450.3196183500653L1588.5009307665878 441.4472657197693Q1588.5009307665878 430.9435450251931 1583.8644110049495 426.62185067946825Q1579.2278912433108 422.3001563337434 1570.1551951665242 422.3001563337434L1570.1551951665242 422.3001563337434Q1565.0035065424813 422.3001563337434 1557.9056244382446 422.70084322672454Q1550.7791218416519 423.1015301197056 1543.7671012144824 423.7311809515331Q1536.783701079669 424.36083178336054 1531.4030485167796 424.9618621228322L1531.4030485167796 424.9618621228322L1530.6016747308176 412.79815287161995Q1535.5243994160141 411.76781514681136 1542.5364200431836 410.7374774220028Q1549.548440670353 409.70713969719424 1557.161491636994 408.99162738829943Q1564.8031630959908 408.2761150794046 1571.185532891333 408.2761150794046L1571.185532891333 408.2761150794046Q1582.919934757208 408.2761150794046 1590.3612627697146 411.88229711623455Q1597.773970289865 415.48847915306453 1601.1798088802045 422.8153251961477Q1604.557026978188 430.11355074687503 1604.557026978188 441.4472657197693L1604.557026978188 441.4472657197693L1604.557026978188 493.5938027920252Q1604.9863343635252 498.1158405842406 1608.163209015018 500.1765160338577Q1611.3687041588669 502.2371914834748 1616.3200493364193 502.8668423153023L1616.3200493364193 502.8668423153023L1615.6903985045917 515.4312384594957Q1611.1683607123764 515.4312384594957 1607.4476967061232 514.9160695970913Q1603.755653192226 514.4009007346871 1600.4356760789537 513.3705630098785L1600.4356760789537 513.3705630098785Q1597.773970289865 512.34022528507 1595.398469424334 510.9092006672803Q1593.0229685588033 509.4495555571348 1590.7619496626958 507.38888010751765L1590.7619496626958 507.38888010751765Q1586.840942209952 509.0488686641537 1580.7733978305237 510.9092006672803Q1574.6772329587398 512.7409121780511 1567.7796943009935 514.0860753187734Q1560.8821556432472 515.4312384594957 1554.0704784625682 515.4312384594957ZM1556.7608047440128 502.0368480369843L1556.7608047440128 502.0368480369843Q1562.313180261037 502.0368480369843 1568.2948631633976 501.0065103121757Q1574.2765460657588 499.97617258736716 1579.6285781362922 498.54514796957744Q1584.9806102068255 497.085502859432 1588.5009307665878 495.85482168813286L1588.5009307665878 495.85482168813286L1588.5009307665878 462.2543636624312L1558.6211367471394 465.1450333903664Q1549.3480972238622 465.9750276686844 1545.3126078016953 470.49706546089976Q1541.3057388718844 475.04772374547093 1541.3057388718844 483.49076899043007L1541.3057388718844 483.49076899043007Q1541.3057388718844 492.13415768187974 1545.226746324628 497.085502859432Q1549.1477537773717 502.0368480369843 1556.7608047440128 502.0368480369843ZM1668.8672733016563 515.6315819059862L1668.8672733016563 515.6315819059862Q1658.1345886682338 515.6315819059862 1651.866700842315 512.34022528507Q1645.5701925240403 509.0488686641537 1642.9084867349516 500.89202834275255Q1640.218160453507 492.76380851370715 1640.218160453507 477.9383934734061L1640.218160453507 477.9383934734061L1640.218160453507 424.1318678445142L1625.5930888596963 424.1318678445142L1625.5930888596963 410.3367905290217L1640.218160453507 410.3367905290217L1640.218160453507 378.7970079529372L1656.0739132186166 378.7970079529372L1656.0739132186166 410.3367905290217L1688.443690073019 410.3367905290217L1688.443690073019 424.1318678445142L1656.0739132186166 424.1318678445142L1656.0739132186166 473.1873917423444Q1656.0739132186166 484.12041982225753 1657.0183894663576 490.18796420168576Q1657.9342452217434 496.255508581114 1661.0252583961687 498.74549141606803Q1664.1162715705946 501.2068537586663 1670.7276053047829 501.2068537586663L1670.7276053047829 501.2068537586663Q1672.7882807544001 501.2068537586663 1676.0796373753162 501.0065103121757Q1679.3709939962325 500.80616686568516 1682.7768325865718 500.4913414497714Q1686.1826711769113 500.1765160338577 1688.8443769660003 499.97617258736716L1688.8443769660003 499.97617258736716L1689.8747146908086 513.3705630098785Q1685.3526768985935 514.000213841706 1679.1706505497418 514.8015876276681Q1672.9886242008906 515.6315819059862 1668.8672733016563 515.6315819059862ZM1741.1912574847465 515.6315819059862L1741.1912574847465 515.6315819059862Q1730.4871933436798 515.6315819059862 1724.1906850254054 512.34022528507Q1717.8941767071306 509.0488686641537 1715.232470918042 500.89202834275255Q1712.5421446365972 492.76380851370715 1712.5421446365972 477.9383934734061L1712.5421446365972 477.9383934734061L1712.5421446365972 424.1318678445142L1697.9170730427868 424.1318678445142L1697.9170730427868 410.3367905290217L1712.5421446365972 410.3367905290217L1712.5421446365972 378.7970079529372L1728.4265178940627 378.7970079529372L1728.4265178940627 410.3367905290217L1760.7676742561093 410.3367905290217L1760.7676742561093 424.1318678445142L1728.4265178940627 424.1318678445142L1728.4265178940627 473.1873917423444Q1728.4265178940627 484.12041982225753 1729.3423736494483 490.18796420168576Q1730.2582294048334 496.255508581114 1733.3492425792592 498.74549141606803Q1736.4402557536846 501.2068537586663 1743.0515894878731 501.2068537586663L1743.0515894878731 501.2068537586663Q1745.1122649374902 501.2068537586663 1748.4036215584065 501.0065103121757Q1751.6949781793228 500.80616686568516 1755.1008167696623 500.4913414497714Q1758.5066553600018 500.1765160338577 1761.1683611490903 499.97617258736716L1761.1683611490903 499.97617258736716L1762.198698873899 513.3705630098785Q1757.6766610816835 514.000213841706 1751.4946347328323 514.8015876276681Q1745.3126083839807 515.6315819059862 1741.1912574847465 515.6315819059862Z " fill="#006838" transform="matrix(0.49653877560520515,0,0,0.4965387756052051,0,81.20934513192424)"/></g></svg>